<svg width="625.107" height="34.001" viewBox="0 0 16539.3 899.6" fill="none" xmlns="http://www.w3.org/2000/svg"><path d="M16537.04 377.82c-414.15 0-414.12-370.41-825.39-370.41-414.13 0-414.13 370.41-825.39 370.41-414.13 0-414.13-370.41-825.37-370.41-414.13 0-414.13 370.41-828.28 370.41-414.13 0-414.13-370.41-828.25-370.41-414.13 0-414.13 370.41-828.25 370.41-414.13 0-414.13-370.41-828.28-370.41-414.13 0-414.13 370.41-828.25 370.41-414.13 0-414.13-370.41-828.26-370.41-414.15 0-414.15 370.41-828.27 370.41-414.13 0-414.13-370.41-828.25-370.41-414.13 0-414.13 370.41-825.4 370.41-414.12 0-414.12-370.41-828.25-370.41s-414.13 370.41-828.25 370.41c-414.15 0-414.15-370.41-828.28-370.41-414.12 0-414.12 370.41-828.25 370.41-414.14 0-414.14-370.41-828.26-370.41-402.63 0-402.63 370.41-816.76 370.41S1237.22 7.41 825.96 7.41C414.71 7.41 411.83 377.82-2.3 377.82v529.17h16539.14l.2-529.17z" fill="#fff"/></svg>